<svg width="16" height="16" viewBox="0 0 16 16" fill="none" xmlns="http://www.w3.org/2000/svg">
<g clip-path="url(#clip0_10_4803)">
<path d="M1.33398 12.0007C1.33398 10.9737 1.33398 10.4602 1.56514 10.083C1.69448 9.87194 1.87194 9.69448 2.08301 9.56514C2.46021 9.33398 2.97369 9.33398 4.00065 9.33398C5.02761 9.33398 5.54109 9.33398 5.9183 9.56514C6.12936 9.69448 6.30682 9.87194 6.43617 10.083C6.66732 10.4602 6.66732 10.9737 6.66732 12.0007C6.66732 13.0276 6.66732 13.5411 6.43617 13.9183C6.30682 14.1294 6.12936 14.3068 5.9183 14.4362C5.54109 14.6673 5.02761 14.6673 4.00065 14.6673C2.97369 14.6673 2.46021 14.6673 2.08301 14.4362C1.87194 14.3068 1.69448 14.1294 1.56514 13.9183C1.33398 13.5411 1.33398 13.0276 1.33398 12.0007Z" stroke="white" stroke-width="1.5"/>
<path d="M9.33398 12.0007C9.33398 10.9737 9.33398 10.4602 9.56514 10.083C9.69448 9.87194 9.87194 9.69448 10.083 9.56514C10.4602 9.33398 10.9737 9.33398 12.0007 9.33398C13.0276 9.33398 13.5411 9.33398 13.9183 9.56514C14.1294 9.69448 14.3068 9.87194 14.4362 10.083C14.6673 10.4602 14.6673 10.9737 14.6673 12.0007C14.6673 13.0276 14.6673 13.5411 14.4362 13.9183C14.3068 14.1294 14.1294 14.3068 13.9183 14.4362C13.5411 14.6673 13.0276 14.6673 12.0007 14.6673C10.9737 14.6673 10.4602 14.6673 10.083 14.4362C9.87194 14.3068 9.69448 14.1294 9.56514 13.9183C9.33398 13.5411 9.33398 13.0276 9.33398 12.0007Z" stroke="white" stroke-width="1.5"/>
<path d="M1.33398 4.00065C1.33398 2.97369 1.33398 2.46021 1.56514 2.08301C1.69448 1.87194 1.87194 1.69448 2.08301 1.56514C2.46021 1.33398 2.97369 1.33398 4.00065 1.33398C5.02761 1.33398 5.54109 1.33398 5.9183 1.56514C6.12936 1.69448 6.30682 1.87194 6.43617 2.08301C6.66732 2.46021 6.66732 2.97369 6.66732 4.00065C6.66732 5.02761 6.66732 5.54109 6.43617 5.9183C6.30682 6.12936 6.12936 6.30682 5.9183 6.43617C5.54109 6.66732 5.02761 6.66732 4.00065 6.66732C2.97369 6.66732 2.46021 6.66732 2.08301 6.43617C1.87194 6.30682 1.69448 6.12936 1.56514 5.9183C1.33398 5.54109 1.33398 5.02761 1.33398 4.00065Z" stroke="white" stroke-width="1.5"/>
<path d="M9.33398 4.00065C9.33398 2.97369 9.33398 2.46021 9.56514 2.08301C9.69448 1.87194 9.87194 1.69448 10.083 1.56514C10.4602 1.33398 10.9737 1.33398 12.0007 1.33398C13.0276 1.33398 13.5411 1.33398 13.9183 1.56514C14.1294 1.69448 14.3068 1.87194 14.4362 2.08301C14.6673 2.46021 14.6673 2.97369 14.6673 4.00065C14.6673 5.02761 14.6673 5.54109 14.4362 5.9183C14.3068 6.12936 14.1294 6.30682 13.9183 6.43617C13.5411 6.66732 13.0276 6.66732 12.0007 6.66732C10.9737 6.66732 10.4602 6.66732 10.083 6.43617C9.87194 6.30682 9.69448 6.12936 9.56514 5.9183C9.33398 5.54109 9.33398 5.02761 9.33398 4.00065Z" stroke="white" stroke-width="1.5"/>
</g>
<defs>
<clipPath id="clip0_10_4803">
<rect width="16" height="16" fill="white"/>
</clipPath>
</defs>
</svg>
